<?xml version="1.0" standalone="no"?>
<!DOCTYPE svg PUBLIC "-//W3C//DTD SVG 20010904//EN"
 "http://www.w3.org/TR/2001/REC-SVG-20010904/DTD/svg10.dtd">
<svg version="1.0" xmlns="http://www.w3.org/2000/svg"
 width="768.000000pt" height="464.000000pt" viewBox="0 0 768.000000 464.000000"
 preserveAspectRatio="xMidYMid meet">
<metadata>
Created by potrace 1.16, written by Peter Selinger 2001-2019
</metadata>
<g transform="translate(0.000000,464.000000) scale(0.100000,-0.100000)"
fill="#000000" stroke="none">
<path d="M0 3400 l0 -1240 28 0 c38 0 47 8 82 75 63 119 153 211 260 265 25
12 46 23 48 25 1 1 9 103 17 226 14 211 27 457 75 1344 11 204 23 409 26 458
l7 87 -272 0 -271 0 0 -1240z"/>
<path d="M696 4618 c-3 -13 -7 -111 -11 -218 -3 -107 -10 -242 -15 -300 -5
-58 -17 -233 -25 -390 -9 -157 -20 -359 -25 -450 -22 -374 -32 -543 -40 -700
-5 -91 -9 -166 -9 -167 -1 -2 -28 -3 -61 -3 -84 0 -152 -32 -217 -104 -43 -47
-52 -63 -51 -91 1 -19 -4 -40 -10 -47 -6 -7 -18 -43 -27 -80 l-17 -66 -94 5
-94 6 0 -271 0 -271 32 -6 c18 -3 56 -6 83 -7 l50 -3 6 -75 c8 -111 53 -198
152 -290 62 -58 76 -59 229 -19 39 10 53 9 90 -4 195 -70 273 -95 280 -91 5 3
6 14 3 25 -5 15 -1 19 14 19 12 0 21 1 21 3 0 11 56 286 85 417 19 85 44 205
55 265 12 61 28 143 35 184 l15 73 -29 27 c-17 16 -33 41 -37 57 -4 16 -15 47
-25 68 -23 52 -11 78 30 70 25 -5 32 -2 45 25 9 17 20 31 25 31 14 0 21 83 8
99 -17 20 -107 61 -136 61 l-24 0 7 148 c7 150 21 416 31 577 12 201 69 1265
78 1463 l2 52 -212 0 c-212 0 -213 0 -217 -22z"/>
<path d="M1307 4548 c-4 -51 -11 -201 -17 -333 -5 -132 -12 -269 -15 -305 -3
-36 -10 -159 -15 -275 -5 -115 -14 -271 -19 -345 -6 -74 -18 -276 -27 -448
-16 -272 -16 -315 -4 -322 21 -13 29 0 39 61 5 30 18 81 29 114 29 86 69 242
77 300 8 54 52 142 95 190 15 17 55 76 90 133 35 56 67 102 73 102 6 0 6 -5
-1 -12 -5 -7 -13 -24 -17 -38 -4 -14 -21 -44 -36 -67 -16 -23 -29 -49 -29 -58
0 -9 -4 -14 -9 -11 -5 3 -11 -3 -14 -14 -3 -13 -1 -18 6 -14 7 4 2 -2 -9 -14
-31 -30 -66 -90 -62 -104 3 -7 17 7 33 31 15 25 31 49 36 55 5 6 25 32 45 59
78 105 53 29 -33 -103 -24 -36 -49 -80 -55 -97 -7 -18 -16 -33 -20 -33 -4 0
-8 -8 -8 -17 0 -15 -2 -16 -10 -3 -16 24 -26 -2 -33 -85 -7 -72 -41 -175 -60
-175 -5 0 -6 8 -2 18 5 13 3 14 -5 6 -9 -9 -9 -17 0 -34 9 -17 9 -25 -4 -39
-9 -10 -16 -29 -16 -42 0 -14 -5 -30 -12 -37 -11 -11 -16 -35 -21 -103 -1 -9
-7 -14 -14 -12 -8 3 -11 0 -8 -9 3 -8 -1 -31 -10 -51 -9 -21 -13 -42 -10 -47
4 -6 1 -10 -6 -10 -8 0 -8 -4 1 -15 10 -12 9 -15 -6 -15 -15 0 -16 -2 -6 -9
19 -12 10 -46 -11 -45 -23 2 -22 -23 3 -69 24 -44 24 -47 6 -47 -7 0 -16 -9
-19 -20 -3 -11 -1 -20 4 -20 4 0 6 -7 3 -15 -4 -8 -1 -15 5 -15 6 0 11 6 11
13 0 8 3 8 9 -2 7 -10 11 0 16 35 9 57 24 92 34 76 8 -14 91 -33 91 -21 0 5
-15 15 -34 23 -29 12 -33 18 -29 40 4 17 14 28 29 32 28 7 32 24 7 25 -11 0
-13 3 -5 6 13 5 17 43 4 43 -5 0 -14 11 -20 25 -13 28 1 68 39 108 22 24 25
47 5 47 -8 0 -14 10 -13 23 0 12 -2 27 -4 32 -2 6 -1 10 2 10 15 0 37 28 32
41 -3 8 0 21 7 29 16 20 50 19 50 -1 0 -8 4 -13 9 -9 13 7 17 -21 11 -70 l-4
-40 -7 45 -6 45 -1 -56 c-2 -41 -6 -59 -18 -63 -10 -4 -13 -13 -9 -26 4 -12 2
-20 -5 -20 -6 0 -4 -10 6 -25 13 -20 14 -28 4 -40 -10 -13 -9 -15 9 -15 11 0
21 -5 21 -11 0 -5 -4 -8 -9 -4 -16 9 -25 -16 -10 -26 10 -7 7 -9 -11 -8 -47 4
-60 -1 -60 -20 0 -11 9 -23 20 -26 23 -7 26 -21 8 -29 -10 -3 -9 -8 3 -18 11
-9 14 -20 8 -34 -5 -15 -1 -28 15 -45 19 -20 25 -45 35 -134 7 -60 15 -113 17
-117 3 -4 -1 -8 -8 -8 -10 0 -10 -2 1 -9 7 -5 10 -14 6 -20 -4 -7 -1 -18 5
-26 7 -8 10 -36 8 -67 -1 -30 -1 -56 2 -58 3 -3 49 -7 103 -10 82 -4 97 -3 98
10 0 11 2 11 6 2 3 -7 1 -18 -5 -25 -5 -7 -15 -30 -22 -52 -7 -22 -26 -65 -41
-95 -17 -32 -29 -70 -28 -90 0 -29 2 -31 9 -15 10 23 11 21 16 -18 3 -29 -5
-34 -24 -15 -26 26 -4 -26 28 -65 12 -16 12 -19 0 -27 -12 -8 -12 -10 2 -15
21 -8 18 -63 -5 -80 -9 -7 -17 -18 -17 -25 0 -7 -11 -28 -26 -47 -14 -18 -23
-37 -20 -42 4 -5 -3 -30 -14 -56 -24 -57 -25 -101 -4 -199 14 -60 21 -75 38
-80 32 -9 68 -7 62 3 -3 4 6 19 19 31 14 13 25 29 25 37 0 7 6 13 13 13 8 0
19 11 25 25 6 14 18 25 27 25 8 0 15 5 15 10 0 6 9 10 19 10 13 0 21 9 26 30
4 16 12 30 18 31 41 2 73 6 82 8 28 9 57 -1 62 -19 3 -12 12 -19 22 -18 12 2
15 -4 14 -27 -2 -22 0 -26 7 -15 8 12 10 12 11 -5 3 -39 -13 -111 -32 -148 -6
-10 -12 -37 -14 -61 l-5 -44 53 -21 c28 -12 61 -26 72 -31 22 -10 110 -36 262
-78 l102 -29 20 21 c81 87 122 116 173 127 29 5 81 20 114 31 68 23 99 19 89
-11 -4 -13 2 -25 17 -37 24 -20 78 -88 78 -99 0 -4 9 -18 20 -32 12 -15 18
-34 15 -44 -8 -23 11 -59 30 -59 8 0 15 -5 15 -12 0 -6 2 -9 5 -6 3 3 1 17 -4
32 -7 16 -7 26 -1 26 5 0 12 -11 16 -25 3 -14 14 -26 23 -26 33 -3 67 -8 116
-18 84 -16 236 -40 305 -47 52 -5 86 -1 170 19 58 15 121 29 141 32 51 9 99
41 99 65 0 11 5 20 10 20 6 0 10 9 10 21 0 11 14 32 31 46 21 18 29 32 26 45
-3 11 1 22 9 25 8 3 14 16 14 28 0 13 5 27 10 30 6 3 10 15 10 26 0 10 4 19
10 19 5 0 7 7 3 16 -3 8 4 25 17 40 13 13 18 24 12 24 -18 0 -15 60 3 66 9 4
15 19 15 40 0 24 8 41 25 56 15 13 23 28 20 38 -3 9 4 28 15 43 11 14 20 34
20 45 0 11 6 22 14 25 7 3 16 25 20 49 9 56 23 102 52 163 13 28 24 63 24 79
0 32 14 82 36 131 7 17 16 62 18 100 3 39 8 86 11 105 15 111 25 201 26 244 1
27 8 71 15 99 7 27 10 55 7 63 -3 8 -1 14 5 14 6 0 13 28 16 63 6 66 10 92 19
117 14 41 27 247 17 280 -14 47 -13 93 3 109 10 11 5 12 -28 7 -97 -16 -414
-121 -438 -145 -20 -20 -45 -194 -48 -341 -1 -41 -4 -60 -6 -42 -2 17 -8 32
-13 32 -13 0 -20 -29 -20 -86 0 -42 3 -53 13 -48 9 6 9 4 2 -7 -6 -8 -8 -33
-4 -59 3 -26 7 -35 8 -20 6 68 19 -31 30 -228 7 -117 19 -255 27 -305 16 -106
18 -177 5 -177 -5 0 -7 10 -5 23 4 20 3 20 -7 -3 -11 -24 -12 -24 -24 22 -7
25 -15 90 -19 145 -4 54 -11 150 -16 213 -5 63 -9 138 -8 165 l1 50 6 -40 7
-40 5 53 c2 30 1 56 -3 59 -5 2 -8 -2 -9 -9 -3 -47 -19 68 -29 209 -15 193 -9
342 14 397 17 41 14 58 -6 38 -7 -7 -22 -12 -35 -12 -13 0 -23 -4 -23 -10 0
-5 -5 -10 -11 -10 -5 0 -9 10 -7 23 2 13 -2 21 -9 20 -16 -4 -20 19 -28 152
-7 136 -9 186 -5 250 1 31 -7 83 -23 136 -14 48 -29 104 -32 125 -12 74 23 -6
49 -111 3 -11 3 5 0 35 -3 30 -18 87 -33 125 -16 39 -32 85 -35 103 -4 17 -11
32 -16 32 -11 0 -52 88 -76 159 -19 58 -19 58 50 176 27 46 41 86 29 84 -35
-6 -55 4 -68 34 -18 42 -3 61 41 54 24 -4 37 0 50 14 15 17 16 22 4 29 -12 7
-11 15 8 50 12 23 19 46 16 51 -7 12 30 65 83 116 23 23 43 50 43 61 0 10 12
27 28 39 16 12 32 38 41 67 10 35 23 53 50 71 19 14 41 25 47 25 6 0 26 14 43
32 17 17 34 29 37 25 4 -4 29 12 55 34 27 22 52 38 56 36 5 -3 24 4 43 14 34
19 10 19 -1451 19 l-1486 0 -6 -92z m1538 -696 c5 -17 12 -32 16 -32 4 0 21
-12 37 -27 16 -16 64 -59 107 -98 43 -38 82 -82 87 -97 6 -16 14 -28 19 -28 5
0 9 -5 9 -10 0 -6 9 -21 21 -33 34 -37 82 -144 111 -252 6 -22 16 -46 22 -54
6 -8 11 -70 12 -155 0 -86 5 -149 12 -162 17 -31 19 -250 2 -299 -12 -37 -34
-71 -75 -118 -9 -10 -13 -22 -10 -27 10 -16 45 -12 45 5 0 19 7 19 28 -2 12
-12 13 -18 4 -21 -6 -2 -11 -18 -11 -35 1 -24 3 -26 6 -10 3 15 14 25 31 29
15 4 32 13 39 21 22 28 123 -10 123 -46 0 -6 9 -12 20 -12 11 -1 25 -3 30 -4
6 -1 17 -3 25 -4 18 -1 85 -65 85 -80 0 -14 37 -14 45 -1 4 6 11 7 17 4 7 -5
5 -11 -6 -20 -9 -6 -18 -21 -19 -32 0 -11 -6 -18 -13 -15 -14 5 -90 -44 -116
-76 -14 -17 -22 -19 -42 -11 -15 5 -38 5 -60 -1 -30 -8 -40 -7 -65 12 -31 22
-56 66 -65 111 -4 15 -13 33 -21 42 -8 8 -15 19 -15 25 0 19 -29 12 -40 -9 -6
-11 -14 -46 -18 -78 -4 -34 -12 -58 -20 -58 -23 -3 -24 -4 -13 -18 9 -10 8
-15 -4 -20 -8 -3 -15 -12 -15 -21 0 -21 -13 -19 -35 5 -10 11 -24 20 -32 20
-10 0 -12 6 -8 19 4 14 -2 22 -24 32 -30 13 -47 36 -36 47 3 3 5 0 5 -6 0 -7
4 -12 9 -12 11 0 2 38 -10 46 -5 3 -46 -19 -91 -49 -46 -30 -97 -61 -114 -70
-61 -31 -96 3 -91 87 3 38 9 54 30 72 33 28 34 44 4 44 -35 0 -38 8 -17 44
l18 33 -27 -5 c-24 -5 -25 -4 -12 12 8 9 21 14 28 12 8 -3 32 3 53 13 38 18
39 18 70 0 38 -23 54 -16 45 20 -15 60 -60 82 -103 51 -26 -19 -32 -20 -78 -9
-27 7 -66 16 -87 21 -21 5 -39 14 -41 21 -2 7 -9 29 -15 50 -14 43 -5 64 31
69 12 2 23 8 25 15 6 16 -33 26 -73 18 -28 -5 -34 -10 -34 -31 0 -21 -4 -25
-22 -22 -28 4 -34 35 -43 193 -3 61 -7 128 -10 149 -2 22 2 51 10 66 7 14 17
43 21 65 7 38 55 95 80 95 6 0 11 -21 11 -52 1 -89 11 -114 68 -167 57 -52 95
-105 95 -133 0 -13 8 -18 30 -18 31 0 40 13 16 27 -7 4 -15 20 -18 34 -4 21
-1 25 13 22 10 -3 28 3 42 13 20 15 24 28 25 81 2 53 6 68 28 93 15 16 42 34
60 40 48 16 61 36 39 60 -26 29 -103 70 -131 70 -60 0 -20 44 51 55 22 4 59 2
83 -3 44 -10 56 0 22 18 -11 6 -48 19 -83 30 -64 20 -64 20 -138 -1 -103 -28
-171 -36 -169 -18 2 8 2 42 1 77 -1 50 -4 62 -17 62 -11 0 -15 6 -12 18 3 11
-1 30 -8 43 -7 13 -13 34 -14 47 0 14 -6 22 -17 23 -17 1 -17 2 0 6 21 5 22
17 2 37 -8 8 -15 20 -15 27 0 15 58 72 85 83 l20 8 -20 9 c-15 7 -11 7 13 3
24 -4 34 -2 38 10 4 11 13 14 29 10 13 -3 36 1 52 10 39 22 56 16 68 -22z
m-1229 -1626 c1 0 -3 -25 -9 -53 -10 -51 -10 -54 16 -81 l27 -28 -33 -30 c-49
-46 -96 -76 -107 -69 -13 8 -13 87 1 178 15 103 12 100 62 92 23 -4 43 -8 43
-9z"/>
<path d="M2727 2823 c-4 -3 -7 -23 -7 -43 0 -37 32 -80 59 -80 7 0 19 -7 27
-15 17 -17 54 -20 54 -5 0 5 -5 41 -12 80 l-12 70 -51 0 c-29 0 -55 -3 -58 -7z"/>
<path d="M6016 3149 c-22 -44 -54 -167 -77 -291 -10 -60 -30 -132 -44 -162
-33 -72 -36 -195 -5 -241 11 -16 20 -38 20 -47 0 -17 93 -160 137 -208 16 -18
31 -26 44 -23 10 3 17 9 14 13 -3 5 4 11 15 15 11 4 18 10 15 15 -3 5 -8 35
-10 67 -6 63 -24 123 -37 123 -4 0 -8 16 -8 35 0 19 -4 35 -8 35 -5 0 -14 48
-21 108 -7 59 -17 125 -23 147 -15 53 -11 207 8 269 16 55 19 162 5 171 -5 3
-16 -9 -25 -26z"/>
<path d="M5630 2013 c0 -37 -22 -93 -36 -93 -6 0 -14 -8 -18 -17 -9 -28 -43
-83 -65 -107 -12 -12 -21 -30 -21 -39 0 -9 -9 -21 -20 -27 -11 -6 -20 -20 -20
-31 0 -11 -4 -18 -9 -14 -13 8 -94 -133 -87 -151 3 -8 1 -14 -4 -14 -16 0 -40
-69 -34 -98 4 -20 0 -33 -15 -46 -26 -24 -30 -96 -6 -96 9 0 20 -11 25 -24 5
-13 17 -29 27 -35 16 -9 16 -12 3 -21 -13 -8 -13 -10 2 -10 10 0 45 -9 79 -21
33 -12 61 -19 63 -18 13 18 53 128 49 133 -4 3 -1 6 5 6 7 0 12 5 12 10 0 6
20 53 45 105 25 52 50 105 55 117 6 13 26 52 45 88 19 36 35 71 35 78 0 6 4
12 9 12 5 0 16 19 24 43 14 42 14 43 -27 127 -45 93 -94 170 -107 170 -5 0 -9
-12 -9 -27z"/>
<path d="M1157 1613 c-2 -5 -5 -33 -6 -63 -2 -30 -9 -67 -17 -82 -11 -21 -11
-28 -2 -28 9 0 9 -3 0 -12 -7 -7 -12 -20 -12 -29 0 -10 -5 -19 -11 -21 -7 -2
-13 -22 -14 -43 -1 -22 -9 -66 -18 -98 -10 -32 -17 -67 -17 -77 0 -10 -8 -24
-17 -29 -10 -6 -13 -11 -8 -11 7 0 7 -3 0 -8 -5 -4 -17 -29 -27 -57 -32 -99
-33 -93 9 -110 53 -23 142 -47 180 -49 l31 -3 -5 111 c-3 61 -9 113 -13 116
-4 3 -6 72 -5 153 1 96 -1 144 -7 135 -7 -9 -8 -8 -4 5 3 10 6 21 6 23 0 2 7
4 16 4 15 0 14 3 -2 28 -13 20 -17 44 -16 90 2 55 0 62 -17 62 -11 0 -22 -3
-24 -7z"/>
<path d="M2 1102 c3 -339 -1 -320 78 -307 22 4 40 8 40 8 0 1 -4 17 -9 35 -15
49 3 86 50 107 21 10 39 21 39 24 -1 3 -21 28 -45 55 -51 56 -97 143 -121 230
-15 55 -15 60 0 72 15 10 14 12 -5 17 -13 4 -20 12 -17 24 2 14 11 17 36 15
18 -2 32 1 32 7 0 12 -4 13 -51 15 l-31 1 4 -303z"/>
<path d="M6089 1173 c-19 -34 -15 -104 7 -116 10 -6 14 -17 10 -32 -6 -24 16
-80 27 -69 4 4 0 16 -8 28 -17 23 -19 36 -7 36 10 0 35 -67 38 -100 2 -39 3
-40 20 -40 8 0 13 -4 9 -9 -6 -11 52 -107 81 -133 11 -9 53 -31 94 -48 41 -17
82 -35 91 -40 10 -5 35 -4 65 5 27 7 41 14 32 14 -10 1 -18 5 -18 10 0 5 8 12
18 14 10 3 4 5 -12 6 -23 1 -27 4 -19 12 9 9 8 19 -2 39 -8 15 -12 30 -9 33 3
3 -8 13 -24 22 -16 10 -37 33 -47 52 -11 20 -24 32 -32 29 -7 -3 -13 1 -13 8
0 7 -9 21 -20 31 -12 10 -19 24 -16 31 6 17 -15 42 -39 46 -12 2 -19 11 -19
21 1 12 -6 17 -27 17 -28 0 -29 2 -29 48 0 42 -4 50 -27 64 -16 8 -33 13 -40
11 -7 -2 -18 5 -25 16 -18 29 -41 26 -59 -6z"/>
<path d="M445 1002 c-6 -5 -32 -17 -58 -27 -34 -13 -44 -21 -35 -27 9 -6 6 -7
-9 -3 -22 6 -83 -18 -83 -33 0 -5 -7 -17 -15 -28 -13 -18 -14 -18 -8 5 5 21 4
22 -16 12 -11 -7 -21 -15 -21 -19 0 -4 -9 -13 -21 -20 -19 -12 -20 -11 -14 7
8 25 -7 34 -30 17 -13 -9 -16 -19 -10 -32 8 -18 8 -18 13 1 7 32 17 36 17 7
-1 -15 -6 -37 -13 -48 -11 -21 -7 -34 10 -34 5 0 6 5 2 12 -4 7 -3 8 5 4 6 -4
39 10 74 32 34 21 90 54 125 72 60 32 107 79 100 101 -2 6 -7 6 -13 1z"/>
<path d="M485 920 c-4 -6 -11 -8 -16 -5 -5 4 -9 2 -9 -3 0 -5 -13 -15 -30 -22
-16 -7 -30 -15 -30 -19 0 -3 -18 -15 -40 -25 -36 -17 -44 -27 -41 -48 0 -4 -6
-5 -14 -2 -9 4 -15 0 -15 -10 0 -10 -8 -16 -21 -16 -17 0 -20 -5 -17 -25 6
-29 -8 -43 -25 -26 -8 8 -8 11 1 11 7 0 12 4 12 9 0 4 -11 6 -25 3 -14 -2 -22
-9 -18 -15 4 -7 0 -8 -12 -3 -22 8 -65 -29 -65 -56 0 -10 15 -32 32 -49 31
-29 33 -30 38 -10 6 24 92 99 170 149 30 20 62 45 72 57 9 11 39 31 67 45 28
13 51 28 51 35 0 28 -51 48 -65 25z"/>
<path d="M477 763 c3 -8 -3 -13 -13 -13 -21 -1 -65 -34 -63 -47 7 -43 -52
-123 -91 -123 -10 0 -20 -5 -22 -12 -6 -18 -30 2 -25 21 3 11 -2 17 -14 18
-12 1 -16 -3 -12 -13 4 -10 0 -12 -13 -8 -18 6 -18 6 -2 -11 30 -32 182 -28
193 4 3 9 37 50 75 91 84 89 90 112 26 108 -30 -2 -42 -7 -39 -15z"/>
</g>
</svg>
